<svg width="161" height="219" viewBox="0 0 161 219" fill="none" xmlns="http://www.w3.org/2000/svg">
<path d="M131.469 0.28125H29.5312C21.8094 0.289682 14.4062 3.36091 8.94608 8.82108C3.48591 14.2812 0.414682 21.6844 0.40625 29.4062V189.594C0.414682 197.316 3.48591 204.719 8.94608 210.179C14.4062 215.639 21.8094 218.71 29.5312 218.719H131.469C139.191 218.71 146.594 215.639 152.054 210.179C157.514 204.719 160.585 197.316 160.594 189.594V29.4062C160.585 21.6844 157.514 14.2812 152.054 8.82108C146.594 3.36091 139.191 0.289682 131.469 0.28125ZM115.759 122.474C119.204 126.192 120.888 131.194 120.488 136.554C119.7 147.231 111.559 155.918 102.344 155.918C93.1284 155.918 84.9734 147.231 84.1952 136.554C83.8039 131.139 85.474 126.129 88.9007 122.447C92.3275 118.765 97.0648 116.781 102.344 116.781C104.853 116.745 107.342 117.233 109.652 118.213C111.962 119.193 114.042 120.645 115.759 122.474ZM51.375 29.4062C51.375 27.4751 52.1421 25.6231 53.5076 24.2576C54.8731 22.8921 56.7251 22.125 58.6562 22.125H102.344C104.275 22.125 106.127 22.8921 107.492 24.2576C108.858 25.6231 109.625 27.4751 109.625 29.4062C109.625 31.3374 108.858 33.1894 107.492 34.5549C106.127 35.9204 104.275 36.6875 102.344 36.6875H58.6562C56.7251 36.6875 54.8731 35.9204 53.5076 34.5549C52.1421 33.1894 51.375 31.3374 51.375 29.4062ZM137.385 194.977C136.86 195.584 136.209 196.069 135.477 196.397C134.745 196.725 133.95 196.888 133.148 196.875H71.5395C70.7375 196.888 69.9424 196.725 69.2104 196.397C68.4784 196.069 67.8272 195.584 67.3027 194.977C66.7341 194.296 66.326 193.496 66.1086 192.636C65.8912 191.775 65.87 190.877 66.0467 190.008C67.5257 182.017 72.1357 175.304 79.3805 170.594C85.8153 166.412 93.9703 164.109 102.344 164.109C110.717 164.109 118.872 166.412 125.307 170.594C132.552 175.304 137.162 182.017 138.641 190.008C138.817 190.877 138.796 191.775 138.579 192.636C138.361 193.496 137.953 194.296 137.385 194.977Z" fill="#C4C4C4"/>
</svg>
